<?xml version="1.0" standalone="no"?>
<!DOCTYPE svg PUBLIC "-//W3C//DTD SVG 20010904//EN"
 "http://www.w3.org/TR/2001/REC-SVG-20010904/DTD/svg10.dtd">
<svg version="1.0" xmlns="http://www.w3.org/2000/svg"
 width="403.000000pt" height="403.000000pt" viewBox="0 0 403.000000 403.000000"
 preserveAspectRatio="xMidYMid meet">
<metadata>
Created by potrace 1.11, written by Peter Selinger 2001-2013
</metadata>
<g transform="translate(0.000000,403.000000) scale(0.100000,-0.100000)"
fill="#000000" stroke="none">
<path d="M1834 4021 c-141 -17 -174 -23 -174 -34 0 -5 18 -74 41 -151 l41
-141 -39 -30 c-21 -16 -70 -61 -109 -101 l-71 -71 -134 169 c-74 94 -141 179
-149 189 -14 18 -19 17 -120 -33 -58 -29 -150 -83 -205 -119 -105 -69 -285
-213 -285 -228 0 -8 464 -368 642 -499 l58 -42 0 -125 c0 -93 -3 -125 -12
-125 -7 0 -40 5 -73 10 -33 6 -175 28 -315 50 -262 41 -392 62 -612 103 l-127
23 -29 -65 c-70 -156 -136 -416 -148 -584 l-7 -88 34 5 c19 3 66 8 104 11 39
3 209 21 380 40 259 29 549 54 629 55 13 0 16 -3 9 -12 -23 -29 -48 -166 -48
-259 l0 -96 -80 -16 c-549 -110 -995 -213 -995 -230 0 -25 50 -206 80 -292 32
-90 126 -294 152 -328 15 -20 35 -13 556 202 162 67 332 135 379 151 l85 30
70 -21 c62 -19 86 -21 197 -16 69 3 140 10 158 15 49 16 48 2 -4 -36 -58 -42
-1092 -730 -1107 -736 -16 -7 124 -136 226 -209 114 -81 260 -168 275 -165 7
2 111 98 232 215 120 117 221 209 225 206 3 -4 6 -14 6 -24 0 -9 18 -53 41
-98 l41 -82 -38 -47 c-21 -26 -83 -100 -137 -165 -55 -65 -98 -119 -96 -121 2
-2 36 -13 74 -24 110 -33 265 -61 345 -64 l74 -3 26 98 c23 89 27 97 45 91 11
-3 48 -14 82 -23 l62 -16 22 -79 23 -79 85 7 c47 3 130 15 185 27 104 20 295
75 309 88 4 4 -19 45 -51 91 l-59 84 49 59 c80 96 111 175 127 321 6 49 12 90
13 91 3 3 327 -177 453 -252 70 -41 70 -41 96 -23 68 49 349 371 349 401 0 8
-163 77 -470 200 -153 62 -244 103 -243 111 1 7 14 51 29 98 14 47 29 117 32
155 l7 71 345 -52 c190 -28 387 -59 439 -68 51 -10 97 -14 102 -9 26 26 82
322 95 506 l6 97 -188 0 c-104 0 -375 -5 -603 -11 l-414 -10 -39 37 c-21 21
-51 56 -66 78 -26 37 -27 45 -26 153 0 62 3 116 6 119 16 15 793 64 1022 64
73 0 160 3 194 6 l61 7 -6 31 c-23 127 -193 538 -236 575 -8 6 -29 6 -57 1
-25 -5 -139 -28 -255 -50 -115 -23 -315 -66 -444 -96 -129 -30 -238 -54 -241
-54 -4 0 -10 39 -13 88 -4 48 -9 103 -12 122 l-6 35 183 131 c101 72 237 169
303 214 66 46 122 85 125 88 23 19 -408 302 -461 302 -8 0 -85 -79 -171 -175
-86 -96 -160 -170 -163 -164 -13 20 -181 162 -201 170 -22 8 -22 9 27 160 27
84 46 155 43 158 -24 24 -429 47 -560 32z m236 -295 c126 -23 327 -136 396
-222 81 -104 147 -226 182 -337 35 -111 35 -114 39 -338 6 -258 6 -256 -77
-359 -67 -84 -136 -135 -284 -209 -157 -79 -229 -96 -361 -85 -55 5 -170 9
-255 9 -125 0 -166 -4 -210 -19 -53 -18 -99 -45 -55 -32 106 30 222 33 390 11
61 -8 158 -15 217 -15 122 0 176 15 255 72 27 19 77 52 113 73 82 49 161 123
212 198 21 31 40 57 41 57 2 0 0 -26 -4 -57 -12 -96 -9 -312 5 -413 15 -104
38 -160 113 -270 25 -36 51 -80 59 -99 16 -39 19 -107 4 -116 -17 -10 -55 41
-73 99 -16 49 -46 86 -69 86 -5 0 -17 -9 -28 -20 -52 -52 4 -196 91 -228 30
-12 74 -5 90 14 26 31 32 13 27 -83 -8 -159 -63 -240 -199 -293 -79 -31 -146
-84 -187 -146 -17 -27 -47 -101 -68 -164 -42 -130 -74 -184 -134 -224 -63 -42
-114 -56 -199 -56 -93 0 -159 27 -225 93 -69 70 -100 137 -101 222 0 75 3 82
95 254 26 48 35 79 38 127 4 60 3 65 -26 94 -17 17 -41 30 -54 29 -22 0 -23 0
-2 -9 67 -27 82 -112 36 -201 -16 -30 -50 -94 -77 -144 -46 -88 -47 -92 -43
-161 6 -90 49 -175 125 -244 76 -70 144 -93 253 -87 102 5 160 28 225 88 55
51 65 69 111 202 62 178 108 232 246 296 146 68 207 148 216 287 5 72 -10 144
-30 144 -6 0 -8 13 -4 36 10 51 -15 126 -73 218 -55 86 -77 143 -87 221 l-7
50 24 -30 c13 -16 50 -61 82 -98 116 -137 155 -218 176 -368 18 -134 -30 -322
-120 -470 -120 -194 -119 -193 -134 -362 -9 -99 -21 -174 -34 -212 -54 -152
-193 -277 -358 -320 -76 -20 -248 -19 -327 1 -211 54 -396 252 -430 460 -15
88 30 238 112 372 96 160 120 245 84 305 l-20 34 102 31 c147 46 175 48 209
22 15 -12 37 -39 47 -61 18 -35 20 -51 14 -147 -7 -106 -7 -107 21 -140 20
-24 35 -32 59 -32 60 0 97 66 112 200 12 104 -39 190 -132 220 -62 21 -213 8
-324 -28 -271 -87 -453 -95 -583 -24 -104 56 -171 169 -172 289 0 39 3 74 7
78 3 4 26 -15 50 -41 85 -93 183 -109 353 -58 50 15 124 37 167 50 130 39 229
56 333 57 124 2 178 -11 325 -79 63 -29 133 -55 155 -58 36 -6 38 -5 15 6
-326 154 -362 164 -533 155 -119 -6 -247 -34 -427 -91 -185 -60 -270 -57 -348
10 -64 55 -87 112 -86 219 1 94 19 205 34 205 5 0 11 -9 15 -20 11 -36 84
-119 141 -161 178 -131 337 -142 609 -39 124 47 232 65 299 50 63 -14 84 -25
195 -109 52 -39 99 -71 105 -71 14 1 -76 85 -154 143 -131 99 -275 102 -502
10 -91 -37 -96 -37 -228 -38 -126 0 -139 2 -202 28 -111 48 -188 140 -188 227
0 23 11 65 24 94 61 134 83 264 90 556 6 202 18 270 67 382 39 88 118 226 166
290 63 82 221 187 323 214 57 16 51 16 140 0z m167 -2642 c-3 -3 -12 -4 -19
-1 -8 3 -5 6 6 6 11 1 17 -2 13 -5z"/>
<path d="M1870 3442 c0 -5 21 -15 47 -23 l48 -15 -85 -42 c-119 -58 -296 -189
-379 -279 -57 -62 -72 -85 -82 -127 -21 -94 -23 -197 -4 -262 35 -123 134
-273 213 -321 101 -62 435 -57 672 12 171 49 200 65 247 136 72 107 107 201
111 299 8 169 -33 287 -126 361 -31 26 -79 60 -105 77 -75 47 -290 131 -415
163 -121 31 -142 34 -142 21z m298 -284 c-3 -9 -30 -14 -76 -16 -60 -2 -72 0
-72 13 0 12 14 15 76 15 56 0 75 -3 72 -12z m192 2 c142 -19 180 -30 196 -63
9 -16 14 -30 12 -32 -2 -2 -29 5 -60 16 -48 16 -153 36 -285 55 -20 3 -33 11
-33 19 0 18 57 19 170 5z m-356 -15 c-4 -10 -20 -15 -44 -15 -21 0 -52 -3 -69
-6 -24 -5 -31 -3 -31 9 0 16 25 21 112 25 30 2 36 -1 32 -13z m-174 -18 c0 -9
-24 -18 -68 -26 -59 -10 -216 -59 -276 -86 -13 -6 -17 -5 -13 2 8 12 142 63
262 98 96 29 95 29 95 12z m308 -23 c12 -4 22 -14 22 -24 0 -27 29 -102 46
-121 9 -10 21 -16 28 -13 9 3 4 21 -16 61 -40 80 -38 93 15 93 66 -1 193 -26
279 -56 93 -33 93 -33 93 -179 l0 -100 -30 4 c-16 1 -52 12 -80 22 -59 23 -65
23 -65 6 0 -8 33 -24 83 -39 95 -30 94 -27 42 -134 -49 -101 -100 -156 -166
-176 -101 -32 -290 -78 -320 -78 l-29 0 0 130 c0 109 -2 130 -15 130 -13 0
-15 -22 -15 -136 l0 -137 -144 5 c-143 5 -143 5 -202 41 -33 19 -71 48 -85 64
-27 29 -79 104 -79 113 0 3 24 15 53 26 52 19 52 19 19 22 -19 2 -46 -1 -62
-6 -25 -9 -29 -8 -39 16 -31 82 -42 200 -27 290 7 39 12 45 52 63 66 28 199
67 282 82 85 16 86 16 87 -70 0 -36 4 -53 13 -53 21 0 26 30 15 84 -6 28 -10
52 -8 54 2 2 27 6 58 9 53 5 54 5 60 -23 3 -16 6 -93 7 -173 0 -79 5 -152 10
-160 7 -10 9 50 7 171 l-2 187 25 4 c43 7 64 7 88 1z"/>
<path d="M1839 2888 c-7 -17 -28 -51 -46 -75 -24 -32 -31 -48 -25 -60 8 -13
17 -5 51 40 23 30 45 71 48 91 7 45 -10 48 -28 4z"/>
<path d="M2255 2900 c10 -11 20 -20 22 -20 2 0 -1 9 -7 20 -6 11 -16 20 -22
20 -6 0 -3 -9 7 -20z"/>
<path d="M2370 2843 c0 -4 5 -15 10 -23 7 -11 12 -12 21 -3 8 8 6 14 -10 22
-12 7 -21 8 -21 4z"/>
<path d="M1653 2692 c-24 -16 -43 -35 -43 -45 0 -17 3 -17 38 4 20 13 45 28
55 33 20 12 23 36 5 35 -7 0 -32 -13 -55 -27z"/>
</g>
</svg>
